%TF.GenerationSoftware,KiCad,Pcbnew,(6.0.11)*%
%TF.CreationDate,2023-08-25T14:29:15+09:00*%
%TF.ProjectId,OUTPUT_MOD,4f555450-5554-45f4-9d4f-442e6b696361,1.0*%
%TF.SameCoordinates,Original*%
%TF.FileFunction,Drillmap*%
%TF.FilePolarity,Positive*%
%FSLAX45Y45*%
G04 Gerber Fmt 4.5, Leading zero omitted, Abs format (unit mm)*
G04 Created by KiCad (PCBNEW (6.0.11)) date 2023-08-25 14:29:15*
%MOMM*%
%LPD*%
G01*
G04 APERTURE LIST*
%ADD10C,0.100000*%
%ADD11C,0.200000*%
%ADD12C,0.320000*%
G04 APERTURE END LIST*
D10*
X11238799Y-7834200D02*
X17842799Y-7834200D01*
X17842799Y-7834200D02*
X17842799Y-12279200D01*
X17842799Y-12279200D02*
X11238799Y-12279200D01*
X11238799Y-12279200D02*
X11238799Y-7834200D01*
D11*
D12*
X11378799Y-7974200D02*
X11698799Y-8294200D01*
X11698799Y-7974200D02*
X11378799Y-8294200D01*
X11378799Y-11819200D02*
X11698799Y-12139200D01*
X11698799Y-11819200D02*
X11378799Y-12139200D01*
X17382799Y-7974200D02*
X17702799Y-8294200D01*
X17702799Y-7974200D02*
X17382799Y-8294200D01*
X17382799Y-11819200D02*
X17702799Y-12139200D01*
X17702799Y-11819200D02*
X17382799Y-12139200D01*
D11*
X11491418Y-12594676D02*
X11491418Y-12394676D01*
X11539037Y-12394676D01*
X11567609Y-12404200D01*
X11586656Y-12423248D01*
X11596180Y-12442295D01*
X11605704Y-12480390D01*
X11605704Y-12508962D01*
X11596180Y-12547057D01*
X11586656Y-12566105D01*
X11567609Y-12585152D01*
X11539037Y-12594676D01*
X11491418Y-12594676D01*
X11691418Y-12594676D02*
X11691418Y-12461343D01*
X11691418Y-12499438D02*
X11700942Y-12480390D01*
X11710466Y-12470867D01*
X11729513Y-12461343D01*
X11748561Y-12461343D01*
X11815228Y-12594676D02*
X11815228Y-12461343D01*
X11815228Y-12394676D02*
X11805704Y-12404200D01*
X11815228Y-12413724D01*
X11824751Y-12404200D01*
X11815228Y-12394676D01*
X11815228Y-12413724D01*
X11939037Y-12594676D02*
X11919990Y-12585152D01*
X11910466Y-12566105D01*
X11910466Y-12394676D01*
X12043799Y-12594676D02*
X12024751Y-12585152D01*
X12015228Y-12566105D01*
X12015228Y-12394676D01*
X12272371Y-12594676D02*
X12272371Y-12394676D01*
X12339037Y-12537533D01*
X12405704Y-12394676D01*
X12405704Y-12594676D01*
X12586656Y-12594676D02*
X12586656Y-12489914D01*
X12577132Y-12470867D01*
X12558085Y-12461343D01*
X12519990Y-12461343D01*
X12500942Y-12470867D01*
X12586656Y-12585152D02*
X12567609Y-12594676D01*
X12519990Y-12594676D01*
X12500942Y-12585152D01*
X12491418Y-12566105D01*
X12491418Y-12547057D01*
X12500942Y-12528009D01*
X12519990Y-12518486D01*
X12567609Y-12518486D01*
X12586656Y-12508962D01*
X12681894Y-12461343D02*
X12681894Y-12661343D01*
X12681894Y-12470867D02*
X12700942Y-12461343D01*
X12739037Y-12461343D01*
X12758085Y-12470867D01*
X12767609Y-12480390D01*
X12777132Y-12499438D01*
X12777132Y-12556581D01*
X12767609Y-12575628D01*
X12758085Y-12585152D01*
X12739037Y-12594676D01*
X12700942Y-12594676D01*
X12681894Y-12585152D01*
X12862847Y-12575628D02*
X12872371Y-12585152D01*
X12862847Y-12594676D01*
X12853323Y-12585152D01*
X12862847Y-12575628D01*
X12862847Y-12594676D01*
X12862847Y-12470867D02*
X12872371Y-12480390D01*
X12862847Y-12489914D01*
X12853323Y-12480390D01*
X12862847Y-12470867D01*
X12862847Y-12489914D01*
X11033799Y-12824200D02*
X11233799Y-13024200D01*
X11233799Y-12824200D02*
X11033799Y-13024200D01*
X11472371Y-12814676D02*
X11596180Y-12814676D01*
X11529513Y-12890867D01*
X11558085Y-12890867D01*
X11577132Y-12900390D01*
X11586656Y-12909914D01*
X11596180Y-12928962D01*
X11596180Y-12976581D01*
X11586656Y-12995628D01*
X11577132Y-13005152D01*
X11558085Y-13014676D01*
X11500942Y-13014676D01*
X11481894Y-13005152D01*
X11472371Y-12995628D01*
X11681894Y-12995628D02*
X11691418Y-13005152D01*
X11681894Y-13014676D01*
X11672371Y-13005152D01*
X11681894Y-12995628D01*
X11681894Y-13014676D01*
X11767609Y-12833724D02*
X11777132Y-12824200D01*
X11796180Y-12814676D01*
X11843799Y-12814676D01*
X11862847Y-12824200D01*
X11872371Y-12833724D01*
X11881894Y-12852771D01*
X11881894Y-12871819D01*
X11872371Y-12900390D01*
X11758085Y-13014676D01*
X11881894Y-13014676D01*
X12005704Y-12814676D02*
X12024751Y-12814676D01*
X12043799Y-12824200D01*
X12053323Y-12833724D01*
X12062847Y-12852771D01*
X12072371Y-12890867D01*
X12072371Y-12938486D01*
X12062847Y-12976581D01*
X12053323Y-12995628D01*
X12043799Y-13005152D01*
X12024751Y-13014676D01*
X12005704Y-13014676D01*
X11986656Y-13005152D01*
X11977132Y-12995628D01*
X11967609Y-12976581D01*
X11958085Y-12938486D01*
X11958085Y-12890867D01*
X11967609Y-12852771D01*
X11977132Y-12833724D01*
X11986656Y-12824200D01*
X12005704Y-12814676D01*
X12196180Y-12814676D02*
X12215228Y-12814676D01*
X12234275Y-12824200D01*
X12243799Y-12833724D01*
X12253323Y-12852771D01*
X12262847Y-12890867D01*
X12262847Y-12938486D01*
X12253323Y-12976581D01*
X12243799Y-12995628D01*
X12234275Y-13005152D01*
X12215228Y-13014676D01*
X12196180Y-13014676D01*
X12177132Y-13005152D01*
X12167609Y-12995628D01*
X12158085Y-12976581D01*
X12148561Y-12938486D01*
X12148561Y-12890867D01*
X12158085Y-12852771D01*
X12167609Y-12833724D01*
X12177132Y-12824200D01*
X12196180Y-12814676D01*
X12348561Y-13014676D02*
X12348561Y-12881343D01*
X12348561Y-12900390D02*
X12358085Y-12890867D01*
X12377132Y-12881343D01*
X12405704Y-12881343D01*
X12424751Y-12890867D01*
X12434275Y-12909914D01*
X12434275Y-13014676D01*
X12434275Y-12909914D02*
X12443799Y-12890867D01*
X12462847Y-12881343D01*
X12491418Y-12881343D01*
X12510466Y-12890867D01*
X12519990Y-12909914D01*
X12519990Y-13014676D01*
X12615228Y-13014676D02*
X12615228Y-12881343D01*
X12615228Y-12900390D02*
X12624751Y-12890867D01*
X12643799Y-12881343D01*
X12672371Y-12881343D01*
X12691418Y-12890867D01*
X12700942Y-12909914D01*
X12700942Y-13014676D01*
X12700942Y-12909914D02*
X12710466Y-12890867D01*
X12729513Y-12881343D01*
X12758085Y-12881343D01*
X12777132Y-12890867D01*
X12786656Y-12909914D01*
X12786656Y-13014676D01*
X13177132Y-12805152D02*
X13005704Y-13062295D01*
X13434275Y-12814676D02*
X13453323Y-12814676D01*
X13472371Y-12824200D01*
X13481894Y-12833724D01*
X13491418Y-12852771D01*
X13500942Y-12890867D01*
X13500942Y-12938486D01*
X13491418Y-12976581D01*
X13481894Y-12995628D01*
X13472371Y-13005152D01*
X13453323Y-13014676D01*
X13434275Y-13014676D01*
X13415228Y-13005152D01*
X13405704Y-12995628D01*
X13396180Y-12976581D01*
X13386656Y-12938486D01*
X13386656Y-12890867D01*
X13396180Y-12852771D01*
X13405704Y-12833724D01*
X13415228Y-12824200D01*
X13434275Y-12814676D01*
X13586656Y-12995628D02*
X13596180Y-13005152D01*
X13586656Y-13014676D01*
X13577132Y-13005152D01*
X13586656Y-12995628D01*
X13586656Y-13014676D01*
X13786656Y-13014676D02*
X13672371Y-13014676D01*
X13729513Y-13014676D02*
X13729513Y-12814676D01*
X13710466Y-12843248D01*
X13691418Y-12862295D01*
X13672371Y-12871819D01*
X13862847Y-12833724D02*
X13872371Y-12824200D01*
X13891418Y-12814676D01*
X13939037Y-12814676D01*
X13958085Y-12824200D01*
X13967609Y-12833724D01*
X13977132Y-12852771D01*
X13977132Y-12871819D01*
X13967609Y-12900390D01*
X13853323Y-13014676D01*
X13977132Y-13014676D01*
X14148561Y-12814676D02*
X14110466Y-12814676D01*
X14091418Y-12824200D01*
X14081894Y-12833724D01*
X14062847Y-12862295D01*
X14053323Y-12900390D01*
X14053323Y-12976581D01*
X14062847Y-12995628D01*
X14072371Y-13005152D01*
X14091418Y-13014676D01*
X14129513Y-13014676D01*
X14148561Y-13005152D01*
X14158085Y-12995628D01*
X14167609Y-12976581D01*
X14167609Y-12928962D01*
X14158085Y-12909914D01*
X14148561Y-12900390D01*
X14129513Y-12890867D01*
X14091418Y-12890867D01*
X14072371Y-12900390D01*
X14062847Y-12909914D01*
X14053323Y-12928962D01*
X14291418Y-12814676D02*
X14310466Y-12814676D01*
X14329513Y-12824200D01*
X14339037Y-12833724D01*
X14348561Y-12852771D01*
X14358085Y-12890867D01*
X14358085Y-12938486D01*
X14348561Y-12976581D01*
X14339037Y-12995628D01*
X14329513Y-13005152D01*
X14310466Y-13014676D01*
X14291418Y-13014676D01*
X14272371Y-13005152D01*
X14262847Y-12995628D01*
X14253323Y-12976581D01*
X14243799Y-12938486D01*
X14243799Y-12890867D01*
X14253323Y-12852771D01*
X14262847Y-12833724D01*
X14272371Y-12824200D01*
X14291418Y-12814676D01*
X14434275Y-12814676D02*
X14434275Y-12852771D01*
X14510466Y-12814676D02*
X14510466Y-12852771D01*
X14805704Y-13090867D02*
X14796180Y-13081343D01*
X14777132Y-13052771D01*
X14767609Y-13033724D01*
X14758085Y-13005152D01*
X14748561Y-12957533D01*
X14748561Y-12919438D01*
X14758085Y-12871819D01*
X14767609Y-12843248D01*
X14777132Y-12824200D01*
X14796180Y-12795628D01*
X14805704Y-12786105D01*
X14967609Y-12881343D02*
X14967609Y-13014676D01*
X14919990Y-12805152D02*
X14872371Y-12948009D01*
X14996180Y-12948009D01*
X15224751Y-13014676D02*
X15224751Y-12814676D01*
X15310466Y-13014676D02*
X15310466Y-12909914D01*
X15300942Y-12890867D01*
X15281894Y-12881343D01*
X15253323Y-12881343D01*
X15234275Y-12890867D01*
X15224751Y-12900390D01*
X15434275Y-13014676D02*
X15415228Y-13005152D01*
X15405704Y-12995628D01*
X15396180Y-12976581D01*
X15396180Y-12919438D01*
X15405704Y-12900390D01*
X15415228Y-12890867D01*
X15434275Y-12881343D01*
X15462847Y-12881343D01*
X15481894Y-12890867D01*
X15491418Y-12900390D01*
X15500942Y-12919438D01*
X15500942Y-12976581D01*
X15491418Y-12995628D01*
X15481894Y-13005152D01*
X15462847Y-13014676D01*
X15434275Y-13014676D01*
X15615228Y-13014676D02*
X15596180Y-13005152D01*
X15586656Y-12986105D01*
X15586656Y-12814676D01*
X15767609Y-13005152D02*
X15748561Y-13014676D01*
X15710466Y-13014676D01*
X15691418Y-13005152D01*
X15681894Y-12986105D01*
X15681894Y-12909914D01*
X15691418Y-12890867D01*
X15710466Y-12881343D01*
X15748561Y-12881343D01*
X15767609Y-12890867D01*
X15777132Y-12909914D01*
X15777132Y-12928962D01*
X15681894Y-12948009D01*
X15853323Y-13005152D02*
X15872371Y-13014676D01*
X15910466Y-13014676D01*
X15929513Y-13005152D01*
X15939037Y-12986105D01*
X15939037Y-12976581D01*
X15929513Y-12957533D01*
X15910466Y-12948009D01*
X15881894Y-12948009D01*
X15862847Y-12938486D01*
X15853323Y-12919438D01*
X15853323Y-12909914D01*
X15862847Y-12890867D01*
X15881894Y-12881343D01*
X15910466Y-12881343D01*
X15929513Y-12890867D01*
X16005704Y-13090867D02*
X16015228Y-13081343D01*
X16034275Y-13052771D01*
X16043799Y-13033724D01*
X16053323Y-13005152D01*
X16062847Y-12957533D01*
X16062847Y-12919438D01*
X16053323Y-12871819D01*
X16043799Y-12843248D01*
X16034275Y-12824200D01*
X16015228Y-12795628D01*
X16005704Y-12786105D01*
X16367609Y-13090867D02*
X16358085Y-13081343D01*
X16339037Y-13052771D01*
X16329513Y-13033724D01*
X16319990Y-13005152D01*
X16310466Y-12957533D01*
X16310466Y-12919438D01*
X16319990Y-12871819D01*
X16329513Y-12843248D01*
X16339037Y-12824200D01*
X16358085Y-12795628D01*
X16367609Y-12786105D01*
X16443799Y-12881343D02*
X16443799Y-13014676D01*
X16443799Y-12900390D02*
X16453323Y-12890867D01*
X16472371Y-12881343D01*
X16500942Y-12881343D01*
X16519990Y-12890867D01*
X16529513Y-12909914D01*
X16529513Y-13014676D01*
X16653323Y-13014676D02*
X16634275Y-13005152D01*
X16624751Y-12995628D01*
X16615228Y-12976581D01*
X16615228Y-12919438D01*
X16624751Y-12900390D01*
X16634275Y-12890867D01*
X16653323Y-12881343D01*
X16681894Y-12881343D01*
X16700942Y-12890867D01*
X16710466Y-12900390D01*
X16719990Y-12919438D01*
X16719990Y-12976581D01*
X16710466Y-12995628D01*
X16700942Y-13005152D01*
X16681894Y-13014676D01*
X16653323Y-13014676D01*
X16777132Y-12881343D02*
X16853323Y-12881343D01*
X16805704Y-12814676D02*
X16805704Y-12986105D01*
X16815228Y-13005152D01*
X16834275Y-13014676D01*
X16853323Y-13014676D01*
X17072371Y-12881343D02*
X17072371Y-13081343D01*
X17072371Y-12890867D02*
X17091418Y-12881343D01*
X17129513Y-12881343D01*
X17148561Y-12890867D01*
X17158085Y-12900390D01*
X17167609Y-12919438D01*
X17167609Y-12976581D01*
X17158085Y-12995628D01*
X17148561Y-13005152D01*
X17129513Y-13014676D01*
X17091418Y-13014676D01*
X17072371Y-13005152D01*
X17281894Y-13014676D02*
X17262847Y-13005152D01*
X17253323Y-12986105D01*
X17253323Y-12814676D01*
X17443799Y-13014676D02*
X17443799Y-12909914D01*
X17434275Y-12890867D01*
X17415228Y-12881343D01*
X17377133Y-12881343D01*
X17358085Y-12890867D01*
X17443799Y-13005152D02*
X17424752Y-13014676D01*
X17377133Y-13014676D01*
X17358085Y-13005152D01*
X17348561Y-12986105D01*
X17348561Y-12967057D01*
X17358085Y-12948009D01*
X17377133Y-12938486D01*
X17424752Y-12938486D01*
X17443799Y-12928962D01*
X17510466Y-12881343D02*
X17586656Y-12881343D01*
X17539037Y-12814676D02*
X17539037Y-12986105D01*
X17548561Y-13005152D01*
X17567609Y-13014676D01*
X17586656Y-13014676D01*
X17729513Y-13005152D02*
X17710466Y-13014676D01*
X17672371Y-13014676D01*
X17653323Y-13005152D01*
X17643799Y-12986105D01*
X17643799Y-12909914D01*
X17653323Y-12890867D01*
X17672371Y-12881343D01*
X17710466Y-12881343D01*
X17729513Y-12890867D01*
X17739037Y-12909914D01*
X17739037Y-12928962D01*
X17643799Y-12948009D01*
X17910466Y-13014676D02*
X17910466Y-12814676D01*
X17910466Y-13005152D02*
X17891418Y-13014676D01*
X17853323Y-13014676D01*
X17834275Y-13005152D01*
X17824752Y-12995628D01*
X17815228Y-12976581D01*
X17815228Y-12919438D01*
X17824752Y-12900390D01*
X17834275Y-12890867D01*
X17853323Y-12881343D01*
X17891418Y-12881343D01*
X17910466Y-12890867D01*
X17986656Y-13090867D02*
X17996180Y-13081343D01*
X18015228Y-13052771D01*
X18024752Y-13033724D01*
X18034275Y-13005152D01*
X18043799Y-12957533D01*
X18043799Y-12919438D01*
X18034275Y-12871819D01*
X18024752Y-12843248D01*
X18015228Y-12824200D01*
X17996180Y-12795628D01*
X17986656Y-12786105D01*
M02*
